<svg xmlns="http://www.w3.org/2000/svg" viewBox="0 0 200 400">
  <defs>
    <radialGradient id="bg2" cx="50%" cy="30%" r="75%">
      <stop offset="0%" stop-color="#F1FAFF"/>
      <stop offset="100%" stop-color="#DCEFF9"/>
    </radialGradient>
    <linearGradient id="plastic" x1="0%" y1="0%" x2="100%" y2="0%">
      <stop offset="0%" stop-color="#BFE6F7"/>
      <stop offset="35%" stop-color="#EAF8FE"/>
      <stop offset="60%" stop-color="#CFEEF9"/>
      <stop offset="100%" stop-color="#9FD3EC"/>
    </linearGradient>
    <linearGradient id="milk" x1="0%" y1="0%" x2="100%" y2="0%">
      <stop offset="0%" stop-color="#FDFDF6"/>
      <stop offset="50%" stop-color="#FFFFFF"/>
      <stop offset="100%" stop-color="#F1EFE2"/>
    </linearGradient>
    <linearGradient id="teat" x1="0%" y1="0%" x2="0%" y2="100%">
      <stop offset="0%" stop-color="#FBC6C6"/>
      <stop offset="100%" stop-color="#EF9A9A"/>
    </linearGradient>
    <linearGradient id="collar" x1="0%" y1="0%" x2="100%" y2="0%">
      <stop offset="0%" stop-color="#E8536B"/>
      <stop offset="50%" stop-color="#FF7A90"/>
      <stop offset="100%" stop-color="#D6465F"/>
    </linearGradient>
  </defs>

  <rect x="1" y="1" width="198" height="398" rx="28" fill="url(#bg2)"/>

  <ellipse cx="100" cy="28" rx="12" ry="7" fill="#F2F2F2"/>
  <path d="M82 34 Q100 44 118 34 L123 58 Q100 68 77 58 Z" fill="url(#teat)" stroke="#E48989" stroke-width="1.5"/>

  <rect x="74" y="58" width="52" height="20" rx="5" fill="url(#collar)"/>

  <path d="M78 78
           Q62 90 60 116
           L60 366
           Q60 390 88 396
           L112 396
           Q140 390 140 366
           L140 116
           Q138 90 122 78 Z"
        fill="url(#plastic)" stroke="#8FC7E4" stroke-width="2"/>

  <path d="M66 130
           Q64 250 66 356
           Q68 378 88 384
           L112 384
           Q132 378 134 356
           Q136 250 134 130
           Z" fill="url(#milk)" opacity="0.95"/>

  <line x1="70" y1="104" x2="130" y2="104" stroke="#7FB9DB" stroke-width="2" opacity="0.7"/>
  <line x1="69" y1="120" x2="131" y2="120" stroke="#7FB9DB" stroke-width="1.6" opacity="0.55"/>

  <!-- blank label window on the bottle body (comparison image overlays here) -->
  <rect x="68" y="203" width="64" height="64" rx="8" fill="#FDFEFC" stroke="#7FB9DB" stroke-width="2" opacity="0.95"/>

  <line x1="69" y1="290" x2="131" y2="290" stroke="#7FB9DB" stroke-width="1.6" opacity="0.55"/>
  <line x1="70" y1="306" x2="130" y2="306" stroke="#7FB9DB" stroke-width="1.6" opacity="0.55"/>

  <ellipse cx="80" cy="150" rx="6" ry="60" fill="#FFFFFF" opacity="0.35"/>

  <g fill="#F4A6B0" opacity="0.9">
    <circle cx="94" cy="352" r="3.5"/>
    <circle cx="106" cy="352" r="3.5"/>
    <circle cx="100" cy="364" r="3.5"/>
  </g>
</svg>
